<svg width="23" height="26" viewBox="0 0 23 26" fill="none" xmlns="http://www.w3.org/2000/svg">
<g id="Icon">
<g id="icon-bell">
<g id="Icon Color">
<path fill-rule="evenodd" clip-rule="evenodd" d="M19.9804 14.8446V10.4809C19.9804 6.56616 17.3216 3.26843 13.7196 2.27668C13.3631 1.37862 12.4918 0.74585 11.4623 0.74585C10.4328 0.74585 9.56155 1.37862 9.20501 2.27668C5.60306 3.26965 2.94419 6.56616 2.94419 10.4809V14.8446L0.866981 16.9218C0.638209 17.1493 0.510437 17.4584 0.510437 17.7821V20.2159C0.510437 20.8888 1.05438 21.4327 1.72731 21.4327H21.1973C21.8702 21.4327 22.4142 20.8888 22.4142 20.2159V17.7821C22.4142 17.4584 22.2864 17.1493 22.0576 16.9218L19.9804 14.8446ZM19.9806 18.999H2.94432V18.2859L5.02152 16.2087C5.25029 15.9811 5.37807 15.672 5.37807 15.3484V10.4809C5.37807 7.12593 8.10752 4.39648 11.4624 4.39648C14.8174 4.39648 17.5468 7.12593 17.5468 10.4809V15.3484C17.5468 15.672 17.6746 15.9811 17.9034 16.2087L19.9806 18.2859V18.999ZM11.4633 25.0834C13.0586 25.0834 14.3923 24.0685 14.8924 22.6496H8.03411C8.53424 24.0685 9.86794 25.0834 11.4633 25.0834Z" fill="#435971"/>
<path fill-rule="evenodd" clip-rule="evenodd" d="M19.9804 14.8446V10.4809C19.9804 6.56616 17.3216 3.26843 13.7196 2.27668C13.3631 1.37862 12.4918 0.74585 11.4623 0.74585C10.4328 0.74585 9.56155 1.37862 9.20501 2.27668C5.60306 3.26965 2.94419 6.56616 2.94419 10.4809V14.8446L0.866981 16.9218C0.638209 17.1493 0.510437 17.4584 0.510437 17.7821V20.2159C0.510437 20.8888 1.05438 21.4327 1.72731 21.4327H21.1973C21.8702 21.4327 22.4142 20.8888 22.4142 20.2159V17.7821C22.4142 17.4584 22.2864 17.1493 22.0576 16.9218L19.9804 14.8446ZM19.9806 18.999H2.94432V18.2859L5.02152 16.2087C5.25029 15.9811 5.37807 15.672 5.37807 15.3484V10.4809C5.37807 7.12593 8.10752 4.39648 11.4624 4.39648C14.8174 4.39648 17.5468 7.12593 17.5468 10.4809V15.3484C17.5468 15.672 17.6746 15.9811 17.9034 16.2087L19.9806 18.2859V18.999ZM11.4633 25.0834C13.0586 25.0834 14.3923 24.0685 14.8924 22.6496H8.03411C8.53424 24.0685 9.86794 25.0834 11.4633 25.0834Z" fill="white" fill-opacity="0.2"/>
</g>
</g>
</g>
</svg>
