<svg width="25" height="26" viewBox="0 0 25 26" fill="none" xmlns="http://www.w3.org/2000/svg">
<g id="App">
<g id="bx-grid-alt">
<g id="Shape">
<path fill-rule="evenodd" clip-rule="evenodd" d="M9.85815 0.74585H1.74565C0.999301 0.74585 0.393568 1.35158 0.393568 2.09793V10.2104C0.393568 10.9568 0.999301 11.5625 1.74565 11.5625H9.85815C10.6045 11.5625 11.2102 10.9568 11.2102 10.2104V2.09793C11.2102 1.35158 10.6045 0.74585 9.85815 0.74585ZM8.50553 8.85835H3.0972V3.45002H8.50553V8.85835ZM15.2666 11.5625H23.3791C24.1268 11.5625 24.7312 10.9568 24.7312 10.2104V2.09793C24.7312 1.35159 24.1268 0.745852 23.3791 0.745852H15.2666C14.5189 0.745852 13.9145 1.35159 13.9145 2.09793V10.2104C13.9145 10.9568 14.5189 11.5625 15.2666 11.5625ZM16.6183 3.45002H22.0267V8.85835H16.6183V3.45002ZM0.393372 23.7313C0.393372 24.4776 0.999105 25.0834 1.74545 25.0834H9.85795C10.6043 25.0834 11.21 24.4776 11.21 23.7313V15.6188C11.21 14.8724 10.6043 14.2667 9.85795 14.2667H1.74545C0.999105 14.2667 0.393372 14.8724 0.393372 15.6188V23.7313ZM3.0972 16.9709H8.50553V22.3792H3.0972V16.9709ZM13.9145 23.7313C13.9145 24.4776 14.5189 25.0834 15.2666 25.0834H23.3791C24.1268 25.0834 24.7312 24.4776 24.7312 23.7313V15.6188C24.7312 14.8724 24.1268 14.2667 23.3791 14.2667H15.2666C14.5189 14.2667 13.9145 14.8724 13.9145 15.6188V23.7313ZM16.6183 16.9709H22.0267V22.3792H16.6183V16.9709Z" fill="#435971"/>
<path fill-rule="evenodd" clip-rule="evenodd" d="M9.85815 0.74585H1.74565C0.999301 0.74585 0.393568 1.35158 0.393568 2.09793V10.2104C0.393568 10.9568 0.999301 11.5625 1.74565 11.5625H9.85815C10.6045 11.5625 11.2102 10.9568 11.2102 10.2104V2.09793C11.2102 1.35158 10.6045 0.74585 9.85815 0.74585ZM8.50553 8.85835H3.0972V3.45002H8.50553V8.85835ZM15.2666 11.5625H23.3791C24.1268 11.5625 24.7312 10.9568 24.7312 10.2104V2.09793C24.7312 1.35159 24.1268 0.745852 23.3791 0.745852H15.2666C14.5189 0.745852 13.9145 1.35159 13.9145 2.09793V10.2104C13.9145 10.9568 14.5189 11.5625 15.2666 11.5625ZM16.6183 3.45002H22.0267V8.85835H16.6183V3.45002ZM0.393372 23.7313C0.393372 24.4776 0.999105 25.0834 1.74545 25.0834H9.85795C10.6043 25.0834 11.21 24.4776 11.21 23.7313V15.6188C11.21 14.8724 10.6043 14.2667 9.85795 14.2667H1.74545C0.999105 14.2667 0.393372 14.8724 0.393372 15.6188V23.7313ZM3.0972 16.9709H8.50553V22.3792H3.0972V16.9709ZM13.9145 23.7313C13.9145 24.4776 14.5189 25.0834 15.2666 25.0834H23.3791C24.1268 25.0834 24.7312 24.4776 24.7312 23.7313V15.6188C24.7312 14.8724 24.1268 14.2667 23.3791 14.2667H15.2666C14.5189 14.2667 13.9145 14.8724 13.9145 15.6188V23.7313ZM16.6183 16.9709H22.0267V22.3792H16.6183V16.9709Z" fill="white" fill-opacity="0.2"/>
</g>
</g>
</g>
</svg>
