<svg width="23" height="25" viewBox="0 0 23 25" fill="none" xmlns="http://www.w3.org/2000/svg">
<g id="Icon">
<g id="Calendar">
<g id="Icon Color">
<path fill-rule="evenodd" clip-rule="evenodd" d="M0.215881 4.92377V7.35752V21.96C0.215881 23.3022 1.30742 24.3938 2.64963 24.3938H19.6859C21.0281 24.3938 22.1196 23.3022 22.1196 21.96V7.35752V4.92377C22.1196 3.58156 21.0281 2.49002 19.6859 2.49002H17.2521V0.0562744H14.8184V2.49002H7.51713V0.0562744H5.08338V2.49002H2.64963C1.30742 2.49002 0.215881 3.58156 0.215881 4.92377ZM19.6884 21.96H2.64976V7.35754H19.686L19.6884 21.96Z" fill="#435971"/>
<path fill-rule="evenodd" clip-rule="evenodd" d="M0.215881 4.92377V7.35752V21.96C0.215881 23.3022 1.30742 24.3938 2.64963 24.3938H19.6859C21.0281 24.3938 22.1196 23.3022 22.1196 21.96V7.35752V4.92377C22.1196 3.58156 21.0281 2.49002 19.6859 2.49002H17.2521V0.0562744H14.8184V2.49002H7.51713V0.0562744H5.08338V2.49002H2.64963C1.30742 2.49002 0.215881 3.58156 0.215881 4.92377ZM19.6884 21.96H2.64976V7.35754H19.686L19.6884 21.96Z" fill="white" fill-opacity="0.4"/>
</g>
</g>
</g>
</svg>
