<svg width="34" height="25" viewBox="0 0 34 25" fill="none" xmlns="http://www.w3.org/2000/svg">
<g id="&#240;&#159;&#152;&#128; Icon">
<g id="credit-card">
<g id="Rectangle">
<rect x="0.562851" y="6.87256" width="32.45" height="3.245" fill="#696CFF"/>
<rect x="0.562851" y="6.87256" width="32.45" height="3.245" fill="white" fill-opacity="0.4"/>
</g>
<g id="Shape">
<path fill-rule="evenodd" clip-rule="evenodd" d="M28.1454 0.382568H5.43044C2.74544 0.390389 0.570757 2.56507 0.562937 5.25007V6.87257H33.0129V5.25007C33.0051 2.56507 30.8304 0.390389 28.1454 0.382568ZM0.562897 19.8526C0.570815 22.5376 2.7454 24.7122 5.4304 24.7201H28.1454C30.8304 24.7122 33.005 22.5376 33.0129 19.8526V10.1176H0.562897V19.8526Z" fill="#696CFF"/>
<path fill-rule="evenodd" clip-rule="evenodd" d="M28.1454 0.382568H5.43044C2.74544 0.390389 0.570757 2.56507 0.562937 5.25007V6.87257H33.0129V5.25007C33.0051 2.56507 30.8304 0.390389 28.1454 0.382568ZM0.562897 19.8526C0.570815 22.5376 2.7454 24.7122 5.4304 24.7201H28.1454C30.8304 24.7122 33.005 22.5376 33.0129 19.8526V10.1176H0.562897V19.8526Z" fill="white" fill-opacity="0.6"/>
</g>
<path id="Path" fill-rule="evenodd" clip-rule="evenodd" d="M13.5422 16.6075H8.67465C7.77858 16.6075 7.05215 15.8811 7.05215 14.985C7.05215 14.089 7.77858 13.3625 8.67465 13.3625H13.5422C14.4382 13.3625 15.1647 14.089 15.1647 14.985C15.1647 15.8811 14.4382 16.6075 13.5422 16.6075Z" fill="#696CFF"/>
</g>
</g>
</svg>
