<svg width="26" height="25" viewBox="0 0 26 25" fill="none" xmlns="http://www.w3.org/2000/svg">
<g id="Icon">
<g id="Message">
<g id="Icon Color">
<path fill-rule="evenodd" clip-rule="evenodd" d="M22.833 0.224976H3.36295C2.02074 0.224976 0.929199 1.31651 0.929199 2.65873V17.2612C0.929199 18.6034 2.02074 19.695 3.36295 19.695H7.01357V24.2789L14.6519 19.695H22.833C24.1752 19.695 25.2667 18.6034 25.2667 17.2612V2.65873C25.2667 1.31651 24.1752 0.224976 22.833 0.224976ZM22.833 17.2613H13.9778L9.44737 19.9785V17.2613H3.363V2.65875H22.833V17.2613Z" fill="#435971"/>
<path fill-rule="evenodd" clip-rule="evenodd" d="M22.833 0.224976H3.36295C2.02074 0.224976 0.929199 1.31651 0.929199 2.65873V17.2612C0.929199 18.6034 2.02074 19.695 3.36295 19.695H7.01357V24.2789L14.6519 19.695H22.833C24.1752 19.695 25.2667 18.6034 25.2667 17.2612V2.65873C25.2667 1.31651 24.1752 0.224976 22.833 0.224976ZM22.833 17.2613H13.9778L9.44737 19.9785V17.2613H3.363V2.65875H22.833V17.2613Z" fill="white" fill-opacity="0.4"/>
</g>
</g>
</g>
</svg>
