<svg width="25" height="25" viewBox="0 0 25 25" fill="none" xmlns="http://www.w3.org/2000/svg">
<g id="Dark">
<g id="bx-moon">
<g id="Shape">
<path fill-rule="evenodd" clip-rule="evenodd" d="M22.8206 14.1861C21.9968 14.4052 21.1462 14.5159 20.2931 14.5159C17.6951 14.5159 15.2553 13.5059 13.4227 11.6733C10.9792 9.2298 10.0166 5.62907 10.911 2.27536C11.023 1.85554 10.9025 1.40773 10.5959 1.10108C10.2892 0.794427 9.84261 0.670306 9.42035 0.787126C7.34923 1.3408 5.46064 2.42747 3.9578 3.9291C-0.785576 8.67248 -0.785576 16.3935 3.9578 21.1394C6.25648 23.438 9.31327 24.7048 12.5635 24.7048C15.8138 24.7048 18.8694 23.4393 21.1668 21.1406C22.6709 19.6353 23.7588 17.7443 24.31 15.6756C24.422 15.2558 24.3003 14.808 23.9936 14.5013C23.687 14.1934 23.238 14.0717 22.8206 14.1861ZM19.4468 19.4199C17.6081 21.2586 15.1634 22.2711 12.5642 22.2711C9.96373 22.2711 7.51903 21.2574 5.67911 19.4187C1.8849 15.6233 1.8849 9.44641 5.67911 5.65098C6.41167 4.91842 7.25862 4.30999 8.18588 3.84636C7.91573 7.35704 9.17641 10.8702 11.7026 13.3964C14.2191 15.9141 17.6982 17.193 21.2527 16.9144C20.7878 17.838 20.1782 18.6861 19.4468 19.4199Z" fill="#435971"/>
<path fill-rule="evenodd" clip-rule="evenodd" d="M22.8206 14.1861C21.9968 14.4052 21.1462 14.5159 20.2931 14.5159C17.6951 14.5159 15.2553 13.5059 13.4227 11.6733C10.9792 9.2298 10.0166 5.62907 10.911 2.27536C11.023 1.85554 10.9025 1.40773 10.5959 1.10108C10.2892 0.794427 9.84261 0.670306 9.42035 0.787126C7.34923 1.3408 5.46064 2.42747 3.9578 3.9291C-0.785576 8.67248 -0.785576 16.3935 3.9578 21.1394C6.25648 23.438 9.31327 24.7048 12.5635 24.7048C15.8138 24.7048 18.8694 23.4393 21.1668 21.1406C22.6709 19.6353 23.7588 17.7443 24.31 15.6756C24.422 15.2558 24.3003 14.808 23.9936 14.5013C23.687 14.1934 23.238 14.0717 22.8206 14.1861ZM19.4468 19.4199C17.6081 21.2586 15.1634 22.2711 12.5642 22.2711C9.96373 22.2711 7.51903 21.2574 5.67911 19.4187C1.8849 15.6233 1.8849 9.44641 5.67911 5.65098C6.41167 4.91842 7.25862 4.30999 8.18588 3.84636C7.91573 7.35704 9.17641 10.8702 11.7026 13.3964C14.2191 15.9141 17.6982 17.193 21.2527 16.9144C20.7878 17.838 20.1782 18.6861 19.4468 19.4199Z" fill="white" fill-opacity="0.2"/>
</g>
</g>
</g>
</svg>
