<svg width="25" height="25" viewBox="0 0 25 25" fill="none" xmlns="http://www.w3.org/2000/svg">
<g id="Icon">
<g id="bx-home">
<path id="Shape" fill-rule="evenodd" clip-rule="evenodd" d="M1.48365 13.5939H2.70052V16.0277V22.1121C2.70052 23.4543 3.79206 24.5458 5.13427 24.5458H8.7849H16.0861H19.7368C21.079 24.5458 22.1705 23.4543 22.1705 22.1121V16.0277V13.5939H23.3874C23.879 13.5939 24.3244 13.297 24.5118 12.8431C24.7004 12.388 24.5958 11.8648 24.2477 11.5167L13.2959 0.564856C12.8201 0.0890583 12.051 0.0890583 11.5752 0.564856L0.623315 11.5167C0.275289 11.8648 0.170638 12.388 0.359253 12.8431C0.546652 13.297 0.992028 13.5939 1.48365 13.5939ZM10.0018 22.1121V16.0277H14.8693V22.1121H10.0018ZM12.4355 3.14584L19.7367 10.4471V16.0277L19.738 22.1121H17.303V16.0277C17.303 14.6855 16.2115 13.5939 14.8692 13.5939H10.0017C8.65953 13.5939 7.56799 14.6855 7.56799 16.0277V22.1121H5.13424V16.0277V12.3771V10.4471L12.4355 3.14584Z" fill="#435971"/>
</g>
</g>
</svg>
