<svg width="23" height="23" viewBox="0 0 23 23" fill="none" xmlns="http://www.w3.org/2000/svg">
<g id="Frame">
<g id="Group">
<path id="Vector" d="M19.473 17.8034C19.2032 17.1743 18.6833 16.6694 18.0464 16.4183L14.127 14.8728C14.0855 14.8566 14.0499 14.8283 14.0248 14.7914C13.9998 14.7546 13.9864 14.7111 13.9866 14.6666V13.4487C14.8259 12.8191 15.4337 11.9944 15.7966 10.9917C15.9192 10.6529 16.0136 10.2931 16.0801 9.91447C16.9346 9.87475 17.6175 9.16731 17.6175 8.30323C17.6175 8.12777 17.5881 7.95344 17.5325 7.78807C17.7937 7.6104 17.9657 7.31083 17.9657 6.97177V6.88915C17.9657 6.34518 17.5231 5.9026 16.9791 5.9026H16.7326V5.15697C16.7326 3.39103 15.7756 1.78214 14.2297 0.936109C14.1932 0.413852 13.757 0 13.2257 0C12.9098 0 12.6275 0.146411 12.4428 0.37476C12.27 0.356184 12.0963 0.346851 11.9225 0.346799H11.1891C10.9835 0.346799 10.7765 0.35992 10.5738 0.385845C10.5611 0.387474 10.5487 0.389872 10.5366 0.392813C10.3519 0.180118 10.0798 0.0452445 9.77665 0.0452445C9.23842 0.0452445 8.79751 0.469774 8.77113 1.00158C8.75724 1.0075 8.74353 1.01407 8.73023 1.02198C7.27996 1.88615 6.37901 3.47057 6.37901 5.15692V5.90255H6.04579C5.50181 5.90255 5.05923 6.34514 5.05923 6.88911V6.97173C5.05923 7.32129 5.24215 7.62877 5.51715 7.80404C5.4647 7.96524 5.43813 8.13372 5.43842 8.30323C5.43842 9.14894 6.0927 9.84425 6.92163 9.91072C6.98723 10.2853 7.07994 10.6415 7.20043 10.9771C7.56234 11.9856 8.17124 12.8146 9.01342 13.4469V14.6666C9.01358 14.7111 9.00026 14.7546 8.97521 14.7914C8.95016 14.8282 8.91455 14.8566 8.87307 14.8728L4.95358 16.4183C4.31677 16.6694 3.79682 17.1743 3.52698 17.8034C2.91894 19.2214 2.6106 20.7226 2.6106 22.2654C2.6106 22.6704 2.94016 23 3.34523 23H14.7305C14.918 23 15.0698 22.8481 15.0698 22.6607C15.0698 22.4733 14.918 22.3213 14.7305 22.3213H11.614V21.4852H12.3358C12.6416 21.4852 12.8904 21.2364 12.8904 20.9306V20.0962C12.8904 19.7903 12.6416 19.5415 12.3358 19.5415H11.614V18.585H13.207C13.9384 18.585 14.5333 17.99 14.5333 17.2587V15.7625L15.1198 15.9938V17.7436C15.1198 18.2767 15.3215 18.7838 15.688 19.1712L16.2013 19.7138C16.3316 19.851 16.4041 20.0332 16.4038 20.2224V22.3213H16.0879C15.9004 22.3213 15.7486 22.4733 15.7486 22.6607C15.7486 22.8481 15.9004 23 16.0879 23H19.6549C20.06 23 20.3895 22.6704 20.3895 22.2654C20.3894 20.7225 20.0811 19.2213 19.473 17.8034ZM9.69204 13.879C10.2573 14.1699 10.8791 14.316 11.5011 14.316C12.1223 14.316 12.7433 14.1703 13.3079 13.8802V14.6472C13.3019 14.6536 13.2961 14.6601 13.2906 14.6669L13.1064 14.8991C12.7151 15.3922 12.1295 15.675 11.5 15.675C10.8705 15.675 10.2849 15.3922 9.8936 14.8991L9.70638 14.6632C9.70181 14.6575 9.69688 14.6523 9.69204 14.6469V13.879ZM16.1684 9.22237C16.2018 8.81901 16.2067 8.3972 16.1827 7.95824H16.8731C16.9168 8.06796 16.9391 8.18505 16.9389 8.30318C16.9389 8.76241 16.6056 9.1445 16.1684 9.22237ZM16.054 5.15692V5.90255H14.2325V1.73101C15.3662 2.49465 16.054 3.76946 16.054 5.15692ZM12.8976 5.90255V1.05203C12.8976 0.871093 13.0447 0.723912 13.2257 0.723912C13.4066 0.723912 13.5538 0.871093 13.5538 1.05203V5.90255H12.8976ZM11.1891 1.02547H11.9225C12.0213 1.02547 12.1203 1.029 12.2189 1.03596V5.90255H10.7834V1.05203C10.7834 1.04976 10.7833 1.04755 10.7832 1.04528C10.9181 1.03214 11.0536 1.02553 11.1891 1.02547ZM7.05768 5.15692C7.05768 3.83185 7.70567 2.58034 8.76987 1.80829V3.24946C8.76987 3.33946 8.80562 3.42577 8.86926 3.48941C8.93289 3.55304 9.0192 3.58879 9.1092 3.58879C9.1992 3.58879 9.28551 3.55304 9.34915 3.48941C9.41278 3.42577 9.44853 3.33946 9.44853 3.24946V1.05203C9.44853 0.871093 9.59572 0.723912 9.77669 0.723912C9.95758 0.723912 10.1048 0.871093 10.1048 1.05203V5.90255H9.44858V4.60675C9.44858 4.51675 9.41283 4.43044 9.34919 4.36681C9.28555 4.30317 9.19924 4.26742 9.10925 4.26742C9.01925 4.26742 8.93294 4.30317 8.8693 4.36681C8.80566 4.43044 8.76991 4.51675 8.76991 4.60675V5.90255H7.05768V5.15692ZM5.7379 6.88911C5.73799 6.80748 5.77046 6.72923 5.82818 6.67151C5.8859 6.61379 5.96416 6.58132 6.04579 6.58122H16.9792C17.0608 6.58132 17.1391 6.61379 17.1968 6.67151C17.2545 6.72923 17.287 6.80748 17.2871 6.88911V6.97173C17.287 7.05335 17.2545 7.13161 17.1968 7.18933C17.1391 7.24705 17.0608 7.27952 16.9792 7.27962H6.04579C5.96416 7.27952 5.8859 7.24705 5.82818 7.18933C5.77046 7.13161 5.73799 7.05335 5.7379 6.97173V6.88911ZM6.11709 8.30318C6.11709 8.18347 6.14035 8.06782 6.18401 7.95824H6.81942C6.79567 8.39299 6.80042 8.81092 6.83295 9.21079C6.42294 9.11193 6.11709 8.74305 6.11709 8.30318ZM7.49945 7.95824H15.5028C15.6434 10.3551 14.8862 12.096 13.2499 13.133C12.1876 13.8062 10.8147 13.8062 9.7524 13.133C8.11581 12.0958 7.35869 10.355 7.49945 7.95824ZM3.28922 22.2654C3.28922 20.8151 3.57905 19.4038 4.15067 18.0709C4.34957 17.607 4.73297 17.2348 5.20247 17.0497L7.20332 16.2607V17.7436C7.20332 18.1026 7.06745 18.444 6.82073 18.7048L6.30752 19.2474C6.05779 19.5105 5.91882 19.8596 5.91937 20.2224V22.3213H3.34523C3.33039 22.3213 3.31615 22.3154 3.30565 22.3049C3.29515 22.2944 3.28924 22.2802 3.28922 22.2654ZM12.2118 20.8065H9.60413V20.2201H12.2118V20.8065ZM9.48012 19.5415C9.17426 19.5415 8.92546 19.7903 8.92546 20.0962V20.9306C8.92546 21.2364 9.17426 21.4852 9.48012 21.4852H10.9353V22.3213H6.59799V20.2224C6.59799 20.0325 6.66989 19.8518 6.80051 19.7138L7.31372 19.1712C7.67935 18.7859 7.88281 18.2747 7.88199 17.7436C7.88199 17.7436 7.88136 16.0004 7.88095 15.9935L8.46845 15.7618V17.2587C8.46845 17.99 9.06341 18.585 9.79475 18.585H10.9353V19.5415H9.48012ZM13.207 17.9063H9.79475C9.43763 17.9063 9.14712 17.6158 9.14712 17.2587V15.4931C9.23283 15.4565 9.31236 15.4068 9.38288 15.3458C9.90356 15.9865 10.673 16.3538 11.5 16.3538C12.3271 16.3538 13.0966 15.9865 13.6172 15.3458C13.6882 15.4072 13.7683 15.4572 13.8547 15.4939V17.2587C13.8547 17.6158 13.5641 17.9063 13.207 17.9063ZM19.6548 22.3213H17.0825V20.2224C17.0825 19.8582 16.9446 19.5119 16.6944 19.2474L16.1811 18.7048C15.9349 18.4454 15.7979 18.1012 15.7985 17.7436V16.2614L17.7975 17.0497C18.2671 17.2348 18.6505 17.607 18.8494 18.0709C19.421 19.4038 19.7108 20.815 19.7108 22.2654C19.7108 22.2802 19.7049 22.2944 19.6944 22.3049C19.6839 22.3154 19.6697 22.3213 19.6548 22.3213Z" fill="#697A8D"/>
</g>
</g>
</svg>
