<svg width="32" height="32" viewBox="0 0 32 32" fill="none" xmlns="http://www.w3.org/2000/svg">
<g id="Frame">
<g id="Group">
<path id="Vector" d="M12.0676 10.8277C12.1191 10.8491 12.1743 10.8601 12.2301 10.8601C12.2858 10.8601 12.341 10.8491 12.3926 10.8278C12.4441 10.8064 12.4909 10.7751 12.5303 10.7357L13.8407 9.42534H16.4052C16.5178 9.42534 16.6258 9.3806 16.7055 9.30097C16.7851 9.22133 16.8298 9.11332 16.8298 9.0007V5.11316C16.8298 5.0574 16.8189 5.00218 16.7975 4.95066C16.7762 4.89914 16.7449 4.85233 16.7055 4.8129C16.666 4.77347 16.6192 4.74219 16.5677 4.72085C16.5162 4.69951 16.461 4.68853 16.4052 4.68853H11.0236C10.9679 4.68853 10.9126 4.69951 10.8611 4.72085C10.8096 4.74219 10.7628 4.77347 10.7234 4.8129C10.6839 4.85233 10.6527 4.89914 10.6313 4.95066C10.61 5.00218 10.599 5.0574 10.599 5.11316V9.00064C10.599 9.11326 10.6437 9.22127 10.7234 9.3009C10.803 9.38054 10.911 9.42527 11.0236 9.42527H11.8055V10.4354C11.8055 10.4354 11.8055 10.4354 11.8055 10.4354C11.8055 10.4911 11.8165 10.5463 11.8378 10.5979C11.8591 10.6494 11.8904 10.6962 11.9298 10.7356C11.9692 10.7751 12.016 10.8064 12.0676 10.8277ZM12.2301 8.57607H11.4483V5.53779H15.9806V8.57607H13.6649C13.6091 8.57607 13.5539 8.58705 13.5024 8.60839C13.4508 8.62973 13.404 8.66101 13.3646 8.70044L13.3999 8.73579L13.3646 8.70044L12.6548 9.41027V9.0007C12.6548 8.88808 12.61 8.78008 12.5304 8.70044C12.4508 8.62081 12.3427 8.57607 12.2301 8.57607Z" fill="#697A8D" stroke="#697A8D" stroke-width="0.1"/>
<path id="Vector_2" d="M18.6262 12.4253C18.6777 12.4466 18.733 12.4576 18.7888 12.4576C18.9014 12.4575 19.0093 12.4128 19.0889 12.3331C19.1685 12.2535 19.2133 12.1455 19.2133 12.0329V11.0228H19.9951C20.1077 11.0228 20.2157 10.978 20.2953 10.8984C20.375 10.8188 20.4197 10.7108 20.4197 10.5981V6.71059C20.4197 6.59797 20.375 6.48996 20.2953 6.41033C20.2157 6.3307 20.1077 6.28596 19.9951 6.28596H16.4052C16.2926 6.28596 16.1846 6.3307 16.1049 6.41033C16.0253 6.48996 15.9806 6.59797 15.9806 6.71059C15.9806 6.82321 16.0253 6.93122 16.1049 7.01085C16.1846 7.09049 16.2926 7.13523 16.4052 7.13523H19.5704V10.1735H18.7887C18.6761 10.1735 18.5681 10.2182 18.4884 10.2979C18.4088 10.3775 18.3641 10.4855 18.3641 10.5981V11.0078L17.6542 10.2979C17.6147 10.2584 17.5679 10.2272 17.5164 10.2058C17.4649 10.1845 17.4097 10.1735 17.3539 10.1735H15.0381V9.00061C15.0381 8.88799 14.9934 8.77998 14.9137 8.70035C14.8341 8.62071 14.7261 8.57597 14.6135 8.57597C14.5008 8.57597 14.3928 8.62071 14.3132 8.70035C14.2336 8.77998 14.1888 8.88799 14.1888 9.00061V10.5981C14.1888 10.7108 14.2336 10.8188 14.3132 10.8984C14.3928 10.978 14.5008 11.0228 14.6135 11.0228H17.178L18.4884 12.3332C18.4884 12.3332 18.4884 12.3332 18.4884 12.3332C18.5279 12.3726 18.5747 12.4039 18.6262 12.4253ZM12.3062 6.88911H15.1227C15.2354 6.88911 15.3434 6.84437 15.423 6.76474C15.5026 6.68511 15.5474 6.5771 15.5474 6.46448C15.5474 6.35186 15.5026 6.24385 15.423 6.16422C15.3434 6.08458 15.2354 6.03984 15.1227 6.03984H12.3062C12.1936 6.03984 12.0856 6.08458 12.006 6.16422C11.9263 6.24385 11.8816 6.35186 11.8816 6.46448C11.8816 6.5771 11.9263 6.68511 12.006 6.76474C12.0856 6.84437 12.1936 6.88911 12.3062 6.88911Z" fill="#697A8D" stroke="#697A8D" stroke-width="0.1"/>
<path id="Vector_3" d="M12.3062 8.0738H15.1227C15.2354 8.0738 15.3434 8.02907 15.423 7.94943C15.5026 7.8698 15.5474 7.76179 15.5474 7.64917C15.5474 7.53655 15.5026 7.42854 15.423 7.34891C15.3434 7.26927 15.2354 7.22454 15.1227 7.22454H12.3062C12.1936 7.22454 12.0856 7.26927 12.006 7.34891C11.9263 7.42854 11.8816 7.53655 11.8816 7.64917C11.8816 7.76179 11.9263 7.8698 12.006 7.94943C12.0856 8.02907 12.1936 8.0738 12.3062 8.0738Z" fill="#697A8D" stroke="#697A8D" stroke-width="0.1"/>
<path id="Vector_4" d="M17.5915 21.9905H27.6306C27.6864 21.9905 27.7416 21.9795 27.7931 21.9582C27.8446 21.9368 27.8914 21.9056 27.9309 21.8661C27.9703 21.8267 28.0016 21.7799 28.0229 21.7283C28.0442 21.6768 28.0552 21.6216 28.0552 21.5658V19.9164C28.0552 19.8038 28.0105 19.6958 27.9308 19.6161C27.8512 19.5365 27.7432 19.4917 27.6306 19.4917H17.5915C17.4789 19.4917 17.3709 19.5365 17.2912 19.6161C17.2116 19.6958 17.1669 19.8038 17.1669 19.9164V21.5659C17.1669 21.6785 17.2116 21.7865 17.2912 21.8661C17.3709 21.9458 17.4789 21.9905 17.5915 21.9905ZM27.2059 20.3411V21.1412H18.0161V20.3411H27.2059Z" fill="#697A8D" stroke="#697A8D" stroke-width="0.1"/>
<path id="Vector_5" d="M22.1569 15.4646L22.1569 15.4646C22.0785 15.3446 21.9448 15.2722 21.8014 15.2722C20.1859 15.2722 18.8716 16.5865 18.8716 18.2021V19.9163C18.8716 20.029 18.9163 20.137 18.996 20.2166C19.0756 20.2962 19.1836 20.341 19.2962 20.341H25.9258C26.0384 20.341 26.1464 20.2962 26.2261 20.2166C26.3057 20.137 26.3504 20.029 26.3504 19.9163V18.2021C26.3504 16.5865 25.0362 15.2722 23.4206 15.2722H23.4206C23.35 15.2722 23.2806 15.2898 23.2185 15.3234C23.1564 15.357 23.1037 15.4055 23.0651 15.4646L23.0651 15.4646L22.611 16.1599L22.1569 15.4646ZM25.5012 18.2021V19.4917H19.7208V18.2021C19.7208 17.1299 20.5362 16.2445 21.5792 16.1333L22.2555 17.1686L22.2555 17.1686C22.2941 17.2277 22.3468 17.2762 22.4089 17.3098C22.471 17.3433 22.5404 17.3609 22.611 17.3609C22.6816 17.3609 22.751 17.3433 22.8131 17.3098C22.8752 17.2762 22.9279 17.2277 22.9665 17.1686L22.9666 17.1686L23.6428 16.1333C24.6859 16.2445 25.5012 17.1299 25.5012 18.2021ZM18.08 27.4078H27.1421C27.2547 27.4078 27.3627 27.363 27.4423 27.2834C27.522 27.2038 27.5667 27.0958 27.5667 26.9831V21.5658C27.5667 21.4531 27.522 21.3451 27.4423 21.2655C27.3627 21.1859 27.2547 21.1411 27.1421 21.1411H18.08C17.9674 21.1411 17.8594 21.1859 17.7798 21.2655C17.7001 21.3451 17.6554 21.4531 17.6554 21.5658V26.9831C17.6554 27.0958 17.7001 27.2038 17.7798 27.2834C17.8594 27.363 17.9674 27.4078 18.08 27.4078ZM26.7174 21.9904V26.5585H18.5047V21.9904H26.7174ZM20.3074 12.7158C20.3074 13.986 21.3407 15.0193 22.611 15.0193C23.8813 15.0193 24.9146 13.986 24.9146 12.7158C24.9146 11.4455 23.8813 10.4122 22.611 10.4122C21.3407 10.4122 20.3074 11.4455 20.3074 12.7158ZM21.1567 12.7158C21.1567 11.9139 21.8091 11.2614 22.611 11.2614C23.4129 11.2614 24.0654 11.9138 24.0653 12.7157C24.0653 13.5176 23.4129 14.1701 22.611 14.1701C21.8092 14.1701 21.1567 13.5177 21.1567 12.7158Z" fill="#697A8D" stroke="#697A8D" stroke-width="0.1"/>
<path id="Vector_6" d="M19.9124 23.4797H25.3094C25.422 23.4797 25.5301 23.4349 25.6097 23.3553C25.6893 23.2757 25.7341 23.1677 25.7341 23.0551C25.7341 22.9424 25.6893 22.8344 25.6097 22.7548C25.5301 22.6752 25.422 22.6304 25.3094 22.6304H19.9124C19.7997 22.6304 19.6917 22.6752 19.6121 22.7548C19.5325 22.8344 19.4877 22.9424 19.4877 23.0551C19.4877 23.1677 19.5325 23.2757 19.6121 23.3553C19.6917 23.4349 19.7997 23.4797 19.9124 23.4797Z" fill="#697A8D" stroke="#697A8D" stroke-width="0.1"/>
<path id="Vector_7" d="M4.4032 21.9905H14.4424C14.4981 21.9905 14.5533 21.9795 14.6049 21.9582C14.6564 21.9368 14.7032 21.9056 14.7426 21.8661C14.7821 21.8267 14.8133 21.7799 14.8347 21.7283C14.856 21.6768 14.867 21.6216 14.867 21.5658V19.9164C14.867 19.8038 14.8222 19.6958 14.7426 19.6161C14.663 19.5365 14.555 19.4917 14.4424 19.4917H4.4032C4.29058 19.4917 4.18257 19.5365 4.10294 19.6161C4.0233 19.6958 3.97856 19.8038 3.97856 19.9164V21.5659C3.97856 21.6785 4.0233 21.7865 4.10294 21.8661C4.18257 21.9458 4.29058 21.9905 4.4032 21.9905ZM14.0177 20.3411V21.1412H4.82783V20.3411H14.0177Z" fill="#697A8D" stroke="#697A8D" stroke-width="0.1"/>
<path id="Vector_8" d="M8.96877 15.4646L8.96876 15.4646C8.89033 15.3446 8.75661 15.2722 8.61322 15.2722C6.99763 15.2722 5.68335 16.5865 5.68335 18.2021V19.9163C5.68335 20.029 5.72808 20.137 5.80772 20.2166C5.88735 20.2962 5.99536 20.341 6.10798 20.341H12.7376C12.8502 20.341 12.9582 20.2962 13.0378 20.2166C13.1175 20.137 13.1622 20.029 13.1623 19.9164V19.9163V18.2021C13.1623 16.5865 11.8481 15.2722 10.2325 15.2722C10.1619 15.2722 10.0924 15.2898 10.0303 15.3234C9.96825 15.357 9.91553 15.4055 9.87692 15.4646L9.87691 15.4646L9.42284 16.1599L8.96877 15.4646ZM12.3129 18.2021V19.4917H6.53261V18.2021C6.53261 17.1299 7.34793 16.2445 8.39101 16.1333L9.06722 17.1686L9.06724 17.1686C9.10587 17.2277 9.1586 17.2762 9.22067 17.3098C9.28275 17.3433 9.35221 17.3609 9.42278 17.3609C9.49335 17.3609 9.56281 17.3433 9.62488 17.3098C9.68695 17.2762 9.73968 17.2277 9.77831 17.1686L9.77833 17.1686L10.4545 16.1333C11.4976 16.2445 12.3129 17.1299 12.3129 18.2021ZM4.89178 27.4078H13.9538C14.0664 27.4078 14.1744 27.363 14.254 27.2834C14.3337 27.2038 14.3784 27.0958 14.3784 26.9831V21.5658C14.3784 21.4531 14.3337 21.3451 14.254 21.2655C14.1744 21.1859 14.0664 21.1411 13.9538 21.1411H4.89178C4.77916 21.1411 4.67116 21.1859 4.59152 21.2655C4.51189 21.3451 4.46715 21.4531 4.46715 21.5658V26.9831C4.46715 27.0958 4.51189 27.2038 4.59152 27.2834C4.67116 27.363 4.77916 27.4078 4.89178 27.4078ZM13.5291 21.9904V26.5585H5.31642V21.9904H13.5291ZM7.11918 12.7158C7.11918 13.986 8.1525 15.0193 9.42278 15.0193C10.693 15.0193 11.7264 13.986 11.7264 12.7158C11.7264 11.4455 10.6931 10.4122 9.42278 10.4122C8.1525 10.4122 7.11918 11.4455 7.11918 12.7158ZM7.96845 12.7158C7.96845 11.9139 8.62086 11.2614 9.42278 11.2614C10.2246 11.2614 10.8771 11.9138 10.8771 12.7158C10.8771 13.5176 10.2247 14.1701 9.42278 14.1701C8.62093 14.1701 7.96845 13.5177 7.96845 12.7158Z" fill="#697A8D" stroke="#697A8D" stroke-width="0.1"/>
<path id="Vector_9" d="M6.7243 23.4797H12.1214C12.234 23.4797 12.342 23.4349 12.4216 23.3553C12.5013 23.2757 12.546 23.1677 12.546 23.0551C12.546 22.9424 12.5013 22.8344 12.4216 22.7548C12.342 22.6752 12.234 22.6304 12.1214 22.6304H6.7243C6.61168 22.6304 6.50368 22.6752 6.42404 22.7548C6.34441 22.8344 6.29967 22.9424 6.29967 23.0551C6.29967 23.1677 6.34441 23.2757 6.42404 23.3553C6.50368 23.4349 6.61168 23.4797 6.7243 23.4797Z" fill="#697A8D" stroke="#697A8D" stroke-width="0.1"/>
</g>
</g>
</svg>
