<svg width="25" height="21" viewBox="0 0 25 21" fill="none" xmlns="http://www.w3.org/2000/svg">
<g id="Icon">
<g id="envelope">
<g id="Icon Color">
<path fill-rule="evenodd" clip-rule="evenodd" d="M21.9038 0.663818H2.43375C1.09154 0.663818 0 1.75536 0 3.09757V17.7001C0 19.0423 1.09154 20.1338 2.43375 20.1338H21.9038C23.246 20.1338 24.3375 19.0423 24.3375 17.7001V3.09757C24.3375 1.75536 23.246 0.663818 21.9038 0.663818ZM21.9038 3.09757V3.7194L12.1688 11.292L2.4338 3.72061V3.09757H21.9038ZM2.4338 17.7001V6.80173L11.4216 13.7927C11.6407 13.9643 11.9047 14.0494 12.1688 14.0494C12.4329 14.0494 12.6969 13.9643 12.916 13.7927L21.9038 6.80173L21.9062 17.7001H2.4338Z" fill="#435971"/>
<path fill-rule="evenodd" clip-rule="evenodd" d="M21.9038 0.663818H2.43375C1.09154 0.663818 0 1.75536 0 3.09757V17.7001C0 19.0423 1.09154 20.1338 2.43375 20.1338H21.9038C23.246 20.1338 24.3375 19.0423 24.3375 17.7001V3.09757C24.3375 1.75536 23.246 0.663818 21.9038 0.663818ZM21.9038 3.09757V3.7194L12.1688 11.292L2.4338 3.72061V3.09757H21.9038ZM2.4338 17.7001V6.80173L11.4216 13.7927C11.6407 13.9643 11.9047 14.0494 12.1688 14.0494C12.4329 14.0494 12.6969 13.9643 12.916 13.7927L21.9038 6.80173L21.9062 17.7001H2.4338Z" fill="white" fill-opacity="0.4"/>
</g>
</g>
</g>
</svg>
