<svg width="32" height="33" viewBox="0 0 32 33" fill="none" xmlns="http://www.w3.org/2000/svg">
<g id="&#240;&#159;&#152;&#128; Icon">
<g id="Box">
<g id="Path">
<path fill-rule="evenodd" clip-rule="evenodd" d="M30.6499 8.56601L15.813 16.4871L0.976135 8.56601C1.28077 8.07929 1.71518 7.67257 2.23808 7.38449L14.0102 1.11083C15.1292 0.528325 16.4968 0.528325 17.6158 1.11083L29.3879 7.38449C29.9108 7.67257 30.3452 8.07929 30.6499 8.56601Z" fill="#8592A3"/>
<path fill-rule="evenodd" clip-rule="evenodd" d="M30.6499 8.56601L15.813 16.4871L0.976135 8.56601C1.28077 8.07929 1.71518 7.67257 2.23808 7.38449L14.0102 1.11083C15.1292 0.528325 16.4968 0.528325 17.6158 1.11083L29.3879 7.38449C29.9108 7.67257 30.3452 8.07929 30.6499 8.56601Z" fill="white" fill-opacity="0.6"/>
</g>
<g id="Path_2">
<path fill-rule="evenodd" clip-rule="evenodd" d="M15.8135 16.4872V32.2961C15.2451 32.2954 14.6842 32.1759 14.173 31.9467L2.29265 25.6065C1.17903 25.0118 0.492302 23.9151 0.489868 22.7276V10.2468C0.492861 9.65723 0.660519 9.07833 0.976618 8.56604L15.8135 16.4872Z" fill="#8592A3"/>
<path fill-rule="evenodd" clip-rule="evenodd" d="M15.8135 16.4872V32.2961C15.2451 32.2954 14.6842 32.1759 14.173 31.9467L2.29265 25.6065C1.17903 25.0118 0.492302 23.9151 0.489868 22.7276V10.2468C0.492861 9.65723 0.660519 9.07833 0.976618 8.56604L15.8135 16.4872Z" fill="white" fill-opacity="0.4"/>
</g>
<path id="Path_3" fill-rule="evenodd" clip-rule="evenodd" d="M31.1371 10.2468V22.7276C31.1347 23.9151 30.448 25.0118 29.3344 25.6065L17.4 31.9633C16.9037 32.1794 16.3623 32.293 15.8135 32.2961V16.4872L30.6504 8.56604C30.9665 9.07833 31.1342 9.65723 31.1371 10.2468Z" fill="#8592A3"/>
</g>
</g>
</svg>
