<svg width="24" height="24" viewBox="0 0 24 24" fill="none" xmlns="http://www.w3.org/2000/svg">
<g id="Frame">
<g id="Group">
<g id="Group_2">
<path id="Vector" d="M17.9416 22.7339H0.840097C0.642097 22.7339 0.480097 22.5734 0.480097 22.3754C0.477097 21.1484 0.528097 18.0839 1.0801 16.1159C1.2256 15.5939 1.4041 15.1679 1.6381 14.7749C1.8361 14.4434 2.4076 13.6094 3.4306 13.0334C3.6436 12.9134 3.8671 12.8099 4.0936 12.7274C4.6576 12.5189 5.2726 12.4229 5.8711 12.4514C5.9416 12.4544 6.0091 12.4784 6.0661 12.5204L8.5681 14.3459L11.2096 12.5159C11.2651 12.4769 11.3311 12.4559 11.3986 12.4529C11.9911 12.4259 12.8941 12.5054 13.8391 13.0364C14.1061 13.1864 14.3626 13.3649 14.5981 13.5674C14.7496 13.6964 14.7676 13.9229 14.6386 14.0744C14.5096 14.2259 14.2831 14.2439 14.1316 14.1149C13.9306 13.9439 13.7131 13.7909 13.4851 13.6634C12.7426 13.2449 12.0286 13.1594 11.5336 13.1684L8.7691 15.0839C8.6431 15.1709 8.4751 15.1694 8.3521 15.0794L5.7316 13.1654C5.2621 13.1579 4.7836 13.2389 4.3426 13.4009C4.1521 13.4714 3.9646 13.5584 3.7831 13.6604C2.9101 14.1524 2.4241 14.8604 2.2546 15.1424C2.0506 15.4844 1.9021 15.8429 1.7716 16.3079C1.2916 18.0224 1.2076 20.6534 1.2001 22.0124H17.9416C18.1411 22.0124 18.3016 22.1729 18.3016 22.3724C18.3016 22.5719 18.1411 22.7339 17.9416 22.7339Z" fill="#697A8D"/>
<path id="Vector_2" d="M3.85805 22.734C3.65855 22.734 3.49805 22.5735 3.49805 22.374V18.315C3.49805 18.1155 3.65855 17.955 3.85805 17.955C4.05755 17.955 4.21805 18.1155 4.21805 18.315V22.374C4.21805 22.572 4.05605 22.734 3.85805 22.734ZM6.88655 16.3245C6.78905 16.3245 6.69155 16.2855 6.62105 16.2075L3.95405 13.308C3.81905 13.161 3.82955 12.9345 3.97505 12.7995C4.12205 12.6645 4.34855 12.675 4.48355 12.8205L6.93755 15.4875L8.35655 14.49C8.51855 14.376 8.74355 14.415 8.85755 14.577C8.97155 14.739 8.93255 14.964 8.77055 15.078L7.09355 16.257C7.03055 16.302 6.95855 16.3245 6.88655 16.3245Z" fill="#697A8D"/>
<path id="Vector_3" d="M10.2404 16.3246C10.1684 16.3246 10.0964 16.3036 10.0334 16.2586L8.35637 15.0796C8.19437 14.9656 8.15387 14.7406 8.26937 14.5786C8.38337 14.4166 8.60837 14.3761 8.77037 14.4916L10.1894 15.4891L12.6434 12.8221C12.7784 12.6751 13.0064 12.6661 13.1519 12.8011C13.2989 12.9361 13.3079 13.1641 13.1729 13.3096L10.5059 16.2091C10.4354 16.2841 10.3379 16.3246 10.2404 16.3246Z" fill="#697A8D"/>
<path id="Vector_4" d="M8.99223 16.995H8.13273C8.00073 16.995 7.88073 16.923 7.81773 16.8075L7.20573 15.69C7.10973 15.516 7.17423 15.297 7.34823 15.201C7.52223 15.105 7.74123 15.1695 7.83723 15.3435L8.34723 16.2735H8.78973L9.31623 15.396C9.41823 15.225 9.64023 15.171 9.80973 15.273C9.98073 15.375 10.0347 15.597 9.93273 15.7665L9.30123 16.8195C9.23673 16.9275 9.11973 16.995 8.99223 16.995Z" fill="#697A8D"/>
<path id="Vector_5" d="M7.34829 22.7341C7.33179 22.7341 7.31529 22.7326 7.29879 22.7311C7.10229 22.7041 6.96429 22.5226 6.99129 22.3261L7.77729 16.5871C7.80429 16.3906 7.98579 16.2526 8.18229 16.2796C8.37879 16.3066 8.51679 16.4881 8.48979 16.6846L7.70379 22.4236C7.67979 22.6021 7.52529 22.7341 7.34829 22.7341ZM9.77829 22.7341C9.60129 22.7341 9.44679 22.6036 9.42279 22.4236L8.63679 16.6846C8.60979 16.4881 8.74779 16.3066 8.94429 16.2796C9.14079 16.2526 9.32229 16.3906 9.34929 16.5871L10.1353 22.3261C10.1623 22.5226 10.0243 22.7041 9.82779 22.7311C9.81129 22.7326 9.79479 22.7341 9.77829 22.7341Z" fill="#697A8D"/>
</g>
<g id="Group_3">
<path id="Vector_6" d="M8.6564 12.6164C7.5944 12.6164 6.5999 12.1619 5.8529 11.3339C5.1149 10.5179 4.7099 9.43493 4.7099 8.28593V6.60743C4.7099 6.48593 4.7699 6.37343 4.8719 6.30743C4.8749 6.30443 5.2814 6.03293 5.7209 5.54543C5.8394 5.41343 6.0359 5.38793 6.1844 5.48543C6.1889 5.48843 6.7364 5.83643 7.6244 6.01343C8.8079 6.24893 10.0079 6.08543 11.1929 5.52593C11.3039 5.47343 11.4344 5.48093 11.5394 5.54693C11.5664 5.56343 11.5889 5.58293 11.6099 5.60543C11.7284 5.73143 12.1049 6.09743 12.4319 6.29993C12.5384 6.36593 12.6029 6.48143 12.6029 6.60593V8.28443C12.6029 9.43493 12.1964 10.5179 11.4599 11.3339C10.7129 12.1619 9.7169 12.6164 8.6564 12.6164ZM5.4299 6.79193V8.28593C5.4299 10.2764 6.8774 11.8964 8.6564 11.8964C10.4354 11.8964 11.8829 10.2764 11.8829 8.28593V6.80093C11.7284 6.69143 11.5619 6.55493 11.3879 6.39443C11.3444 6.35393 11.3039 6.31643 11.2679 6.28193C10.6064 6.56693 9.9299 6.74393 9.2534 6.80693C8.6459 6.86393 8.0384 6.83243 7.4474 6.71093C6.8129 6.58043 6.3314 6.37493 6.0554 6.23543C5.8019 6.49493 5.5739 6.68093 5.4299 6.79193Z" fill="#697A8D"/>
<path id="Vector_7" d="M5.06991 6.96758C4.93041 6.96758 4.79841 6.88658 4.73991 6.75008C4.55241 6.31508 4.52241 5.84258 4.49691 5.42558C4.47591 5.08508 4.44891 4.66208 4.54641 4.25558C4.63041 3.90308 4.84041 3.52358 5.18841 3.09908C5.24391 3.03158 5.30091 2.96558 5.35791 2.90558C6.30291 1.89458 7.86441 1.49558 8.16891 1.42658C8.76291 1.29008 9.33141 1.24058 9.85941 1.28258C10.2299 1.31108 10.5434 1.36208 10.8194 1.44008C11.1809 1.54208 11.4629 1.73558 11.6354 2.00108C11.7224 2.13608 11.7779 2.27708 11.8259 2.40158C11.8754 2.52908 11.9174 2.63858 11.9804 2.71208C12.0599 2.80508 12.1649 2.88758 12.2744 2.97608C12.3989 3.07508 12.5294 3.17708 12.6494 3.31208C12.9419 3.64208 13.2719 4.19108 13.3214 4.74458C13.3679 5.25308 13.1639 5.70158 12.9809 6.03608C12.9749 6.04658 12.9629 6.07058 12.9449 6.10508C12.6179 6.73508 12.5549 6.81608 12.4889 6.87758C12.3419 7.01108 12.1139 7.00208 11.9804 6.85508C11.8529 6.71708 11.8559 6.50558 11.9804 6.36908C12.0119 6.32558 12.0944 6.18308 12.3059 5.77358C12.3314 5.72558 12.3419 5.70308 12.3494 5.69108C12.4829 5.44658 12.6329 5.12558 12.6044 4.81058C12.5714 4.45508 12.3329 4.04258 12.1109 3.79058C12.0329 3.70358 11.9339 3.62558 11.8289 3.54308C11.7014 3.44258 11.5559 3.32858 11.4299 3.17858C11.2889 3.01208 11.2169 2.82608 11.1539 2.66258C11.1149 2.56208 11.0774 2.46608 11.0309 2.39258C10.9364 2.24558 10.7579 2.17058 10.6259 2.13458C10.3964 2.07008 10.1279 2.02658 9.80541 2.00258C9.35091 1.96808 8.85591 2.01158 8.33241 2.13158C7.59291 2.30108 6.50841 2.73608 5.88591 3.40058C5.83941 3.45008 5.79291 3.50408 5.74791 3.55958C5.47491 3.89408 5.30691 4.18658 5.24841 4.42808C5.17641 4.72958 5.19891 5.07908 5.21691 5.38658C5.24091 5.76158 5.26491 6.15008 5.40291 6.46958C5.48241 6.65258 5.39841 6.86408 5.21541 6.94358C5.16591 6.95858 5.11641 6.96758 5.06991 6.96758ZM11.4149 13.1701C11.2664 13.1701 11.1269 13.0771 11.0744 12.9286L10.5719 11.4916C10.5059 11.3041 10.6049 11.0986 10.7924 11.0326C10.9799 10.9666 11.1854 11.0656 11.2514 11.2531L11.7539 12.6901C11.8199 12.8776 11.7209 13.0831 11.5334 13.1491C11.4944 13.1641 11.4539 13.1701 11.4149 13.1701ZM5.85441 13.1701C5.81241 13.1701 5.77041 13.1626 5.72841 13.1476C5.54241 13.0786 5.44641 12.8716 5.51691 12.6841L6.05391 11.2396C6.12291 11.0536 6.32991 10.9576 6.51741 11.0281C6.70341 11.0971 6.79941 11.3041 6.72891 11.4916L6.19191 12.9361C6.13791 13.0801 5.99991 13.1701 5.85441 13.1701Z" fill="#697A8D"/>
</g>
<g id="Group_4">
<path id="Vector_8" d="M17.9507 22.734H17.8787C17.0357 22.737 15.9347 22.689 14.8877 22.2945C14.2832 22.0665 13.7342 21.72 13.2962 21.2925C12.8132 20.82 12.4817 20.2575 12.3347 19.6635C12.1097 18.753 12.3167 17.82 12.5222 17.1075C13.1372 14.9775 14.2682 12.999 15.7922 11.388C15.9287 11.244 16.1567 11.238 16.3007 11.3745C16.4447 11.511 16.4522 11.739 16.3142 11.883C14.8727 13.41 13.8002 15.285 13.2152 17.3055C13.0337 17.931 12.8507 18.744 13.0352 19.488C13.2602 20.3955 14.0672 21.2115 15.1442 21.6195C16.0802 21.9735 17.0972 22.0155 17.8787 22.0125H17.8817C18.6632 22.0155 19.6802 21.9735 20.6162 21.6195C21.6917 21.213 22.5002 20.3955 22.7252 19.488C22.9097 18.744 22.7252 17.9295 22.5452 17.3055C21.9617 15.285 20.8892 13.4085 19.4432 11.8815C19.3067 11.7375 19.3127 11.5095 19.4567 11.373C19.6007 11.2365 19.8287 11.2425 19.9652 11.3865C21.4892 12.9975 22.6202 14.9745 23.2352 17.106C23.4407 17.817 23.6477 18.7515 23.4227 19.662C23.2757 20.256 22.9427 20.8185 22.4612 21.291C22.0247 21.7185 21.4742 22.065 20.8697 22.293C19.8527 22.6785 18.7847 22.734 17.9507 22.734Z" fill="#697A8D"/>
<path id="Vector_9" d="M19.6997 11.976H16.0577C15.5342 11.976 15.1082 11.55 15.1082 11.0265C15.1082 10.503 15.5342 10.077 16.0577 10.077H19.6997C20.2232 10.077 20.6492 10.503 20.6492 11.0265C20.6492 11.55 20.2232 11.976 19.6997 11.976ZM16.0592 10.7955C15.9317 10.7955 15.8297 10.899 15.8297 11.025C15.8297 11.151 15.9332 11.2545 16.0592 11.2545H19.7012C19.8287 11.2545 19.9307 11.151 19.9307 11.025C19.9307 10.899 19.8272 10.7955 19.7012 10.7955H16.0592Z" fill="#697A8D"/>
<path id="Vector_10" d="M19.6081 10.7956H16.1491C16.0081 10.7956 15.8807 10.7131 15.8221 10.5856L14.6941 8.12109C14.6491 8.02359 14.6506 7.91259 14.6971 7.81509C14.7436 7.71759 14.8306 7.64859 14.9341 7.62159C15.2446 7.54359 15.9706 7.36059 16.4236 7.91409C16.4731 7.97409 16.5106 8.03409 16.5436 8.08659C16.5736 8.13459 16.6036 8.17959 16.6276 8.20509C16.6606 8.23809 16.7162 8.25909 16.7671 8.25759C16.8241 8.25609 16.8841 8.22759 16.9276 8.18409C16.9531 8.15859 16.9801 8.12109 17.0101 8.08059C17.0506 8.02659 17.0956 7.96509 17.1556 7.90359C17.3446 7.71009 17.6086 7.59909 17.8786 7.59909H17.8801C18.1516 7.59909 18.4156 7.71159 18.6046 7.90809C18.6616 7.96659 18.7051 8.02659 18.7441 8.08059C18.7726 8.11959 18.7996 8.15709 18.8236 8.18109C18.8836 8.24259 18.9886 8.26959 19.0711 8.24559C19.1596 8.22009 19.2241 8.14809 19.3336 8.02359C19.4281 7.91409 19.5361 7.79109 19.6891 7.69359C20.1361 7.40859 20.6671 7.57209 20.8426 7.62609C20.9416 7.65609 21.0226 7.72809 21.0646 7.82259C21.1066 7.91709 21.1066 8.02509 21.0631 8.11959L19.9351 10.5841C19.8766 10.7146 19.7491 10.7956 19.6081 10.7956ZM16.3816 10.0756H19.3771L20.2096 8.25609C20.1571 8.26359 20.1121 8.27859 20.0746 8.30259C20.0086 8.34459 19.9471 8.41509 19.8751 8.49759C19.7371 8.65659 19.5646 8.85459 19.2676 8.93859C18.9316 9.03459 18.5566 8.93559 18.3106 8.68809C18.2491 8.62659 18.2026 8.56209 18.1621 8.50659C18.1351 8.46909 18.1081 8.43309 18.0856 8.40909C18.0346 8.35509 17.9551 8.32209 17.8801 8.32209C17.8051 8.32209 17.7256 8.35509 17.6731 8.40909C17.6491 8.43459 17.6206 8.47059 17.5921 8.51109C17.5501 8.56809 17.5036 8.63109 17.4406 8.69409C17.2696 8.86659 17.0341 8.97009 16.7956 8.97909C16.5406 8.98809 16.2931 8.89209 16.1176 8.71359C16.0381 8.63259 15.9826 8.54559 15.9376 8.47359C15.9121 8.43459 15.8896 8.39709 15.8672 8.37159C15.8011 8.29059 15.7006 8.25159 15.5476 8.25159L16.3816 10.0756Z" fill="#697A8D"/>
</g>
<path id="Vector_11" d="M17.8784 20.493C16.2734 20.493 14.9684 19.188 14.9684 17.583C14.9684 15.978 16.2734 14.673 17.8784 14.673C19.4834 14.673 20.7884 15.978 20.7884 17.583C20.7899 19.1865 19.4834 20.493 17.8784 20.493ZM17.8784 15.3915C16.6709 15.3915 15.6884 16.374 15.6884 17.5815C15.6884 18.789 16.6709 19.7715 17.8784 19.7715C19.0859 19.7715 20.0684 18.789 20.0684 17.5815C20.0684 16.374 19.0874 15.3915 17.8784 15.3915Z" fill="#697A8D"/>
<path id="Vector_12" d="M18.828 17.6791L18.8265 17.6761C18.747 17.5591 18.6255 17.4616 18.465 17.3881C18.363 17.3416 18.1785 17.2876 17.9175 17.2291C17.5845 17.1541 17.5185 17.1001 17.511 17.0941C17.481 17.0671 17.4675 17.0356 17.4675 16.9921C17.4675 16.9381 17.4915 16.8961 17.5425 16.8541C17.583 16.8211 17.673 16.7821 17.865 16.7821C18.009 16.7821 18.1185 16.8106 18.1845 16.8631C18.228 16.8991 18.2595 16.9486 18.2775 17.0116C18.315 17.1376 18.4275 17.2231 18.558 17.2231C18.5655 17.2231 18.573 17.2231 18.582 17.2216H18.585C18.6735 17.2156 18.7545 17.1691 18.8055 17.0971C18.8565 17.0251 18.8715 16.9351 18.8475 16.8496C18.8235 16.7671 18.789 16.6891 18.741 16.6186C18.654 16.4866 18.528 16.3846 18.369 16.3171C18.219 16.2541 18.045 16.2211 17.8515 16.2211C17.6745 16.2211 17.511 16.2511 17.3655 16.3126C17.2095 16.3771 17.088 16.4746 17.0055 16.6021C16.923 16.7281 16.881 16.8676 16.881 17.0131C16.881 17.1481 16.9155 17.2726 16.986 17.3821C17.055 17.4901 17.157 17.5801 17.2905 17.6506L17.2935 17.6521C17.391 17.7031 17.5545 17.7556 17.778 17.8096C18.0375 17.8726 18.1395 17.9041 18.18 17.9191C18.2715 17.9536 18.312 17.9881 18.33 18.0121C18.3525 18.0421 18.3645 18.0766 18.3645 18.1171C18.3645 18.1591 18.351 18.1981 18.3255 18.2341C18.2985 18.2731 18.2505 18.3046 18.186 18.3301C18.1125 18.3586 18.024 18.3736 17.9235 18.3736C17.8095 18.3736 17.7075 18.3541 17.619 18.3151C17.538 18.2806 17.4795 18.2356 17.4435 18.1831C17.421 18.1486 17.403 18.1081 17.3895 18.0601C17.355 17.9311 17.2365 17.8411 17.1045 17.8411C17.0955 17.8411 17.0865 17.8411 17.079 17.8426C16.9935 17.8501 16.9155 17.8936 16.866 17.9641C16.815 18.0346 16.7985 18.1216 16.818 18.2056C16.8435 18.3106 16.8855 18.4096 16.944 18.5011C17.0415 18.6496 17.1765 18.7606 17.346 18.8341C17.508 18.9031 17.706 18.9391 17.9385 18.9391C18.126 18.9391 18.2985 18.9031 18.4515 18.8341C18.6105 18.7621 18.735 18.6571 18.822 18.5236C18.909 18.3901 18.9525 18.2446 18.9525 18.0916C18.9495 17.9401 18.909 17.8006 18.828 17.6791Z" fill="#697A8D"/>
<g id="Group_5">
<path id="Vector_13" d="M17.8785 19.332C17.679 19.332 17.5185 19.1715 17.5185 18.972V18.8325C17.5185 18.633 17.679 18.4725 17.8785 18.4725C18.078 18.4725 18.2385 18.633 18.2385 18.8325V18.972C18.2385 19.17 18.078 19.332 17.8785 19.332ZM17.8785 16.6905C17.679 16.6905 17.5185 16.53 17.5185 16.3305V16.1925C17.5185 15.993 17.679 15.8325 17.8785 15.8325C18.078 15.8325 18.2385 15.993 18.2385 16.1925V16.3305C18.2385 16.53 18.078 16.6905 17.8785 16.6905Z" fill="#697A8D"/>
</g>
</g>
</g>
</svg>
