<svg width="26" height="26" viewBox="0 0 26 26" fill="none" xmlns="http://www.w3.org/2000/svg">
<g id="Frame" clip-path="url(#clip0_1_1180)">
<g id="Group">
<path id="Vector" d="M2.24286 19.9028C2.519 19.9028 2.74286 19.679 2.74286 19.4028C2.74286 19.1267 2.519 18.9028 2.24286 18.9028C1.96672 18.9028 1.74286 19.1267 1.74286 19.4028C1.74286 19.679 1.96672 19.9028 2.24286 19.9028Z" fill="#697A8D"/>
<path id="Vector_2" d="M25.6085 15.7829C25.5857 15.7543 25.0857 15.2543 25.0857 15.2543C24.2885 14.4572 23.0857 14.4829 22.1314 14.9314L22.1771 14.8457C22.2098 14.7865 22.2299 14.7212 22.2363 14.6539C22.2427 14.5865 22.2352 14.5186 22.2143 14.4543C22.1932 14.3916 22.1596 14.3339 22.1153 14.2848C22.0711 14.2356 22.0173 14.1961 21.9571 14.1686C21.9118 14.1455 21.8651 14.1255 21.8171 14.1086L21.2114 13.9143C19.9257 13.4943 18.6685 14.3914 18.0857 15.5L16.3257 18.1972H15.9771C16.3231 17.7154 16.5062 17.1359 16.5 16.5429L16.4743 16.2572C16.4615 16.1334 16.4034 16.0187 16.311 15.9353C16.2187 15.852 16.0987 15.8058 15.9743 15.8057H8.9914C8.86933 15.806 8.75153 15.8507 8.65997 15.9314L6.10283 18.1829H5.37712V16.9572C5.37712 16.8245 5.32444 16.6974 5.23067 16.6036C5.1369 16.5098 5.00973 16.4572 4.87712 16.4572H0.857117C0.724508 16.4572 0.597331 16.5098 0.503563 16.6036C0.409795 16.6974 0.357117 16.8245 0.357117 16.9572C0.357117 17.0898 0.409795 17.2169 0.503563 17.3107C0.597331 17.4045 0.724508 17.4572 0.857117 17.4572H4.3714V24.7372H2.2514C2.11879 24.7372 1.99162 24.7898 1.89785 24.8836C1.80408 24.9774 1.7514 25.1045 1.7514 25.2372C1.7514 25.3698 1.80408 25.4969 1.89785 25.5907C1.99162 25.6845 2.11879 25.7372 2.2514 25.7372H4.87712C5.00949 25.7364 5.13624 25.6835 5.22984 25.5899C5.32345 25.4963 5.37637 25.3695 5.37712 25.2372V24.6029H9.1114C9.16993 24.6024 9.22794 24.5918 9.28283 24.5714L19.1171 20.9229C19.1553 20.9078 19.1917 20.8886 19.2257 20.8657L25.5114 16.5314C25.5694 16.4904 25.6182 16.4377 25.6547 16.3767C25.6911 16.3157 25.7143 16.2477 25.7228 16.1772C25.733 16.1071 25.728 16.0357 25.7083 15.9677C25.6886 15.8997 25.6546 15.8367 25.6085 15.7829ZM18.9371 16.0143L18.9628 15.9714C19.3371 15.2429 20.1428 14.6057 20.9028 14.8543L21.0143 14.8886L20.5085 15.82C20.5085 15.8343 20.5085 15.8514 20.4885 15.8686L18.1457 17.2286L18.9371 16.0143ZM18.7085 20.0143L9.01997 23.6029H5.37712V19.1686H6.28569C6.40678 19.1676 6.52344 19.123 6.61426 19.0429L9.18569 16.7914H15.4885C15.4422 17.115 15.3111 17.4206 15.1085 17.6772C14.923 17.9401 14.6439 18.122 14.3285 18.1857H10.3085C10.1759 18.1857 10.0488 18.2384 9.95499 18.3322C9.86122 18.4259 9.80855 18.5531 9.80855 18.6857C9.80855 18.8183 9.86122 18.9455 9.95499 19.0393C10.0488 19.133 10.1759 19.1857 10.3085 19.1857H16.6228C16.7109 19.1856 16.7974 19.163 16.8743 19.12C16.8743 19.12 22.1314 16.0886 22.1457 16.0772C22.8057 15.6 23.8143 15.3972 24.38 15.9629L24.4628 16.0457L18.7085 20.0143ZM23.4428 8.57144C23.5754 8.57144 23.7026 8.51876 23.7964 8.425C23.8902 8.33123 23.9428 8.20405 23.9428 8.07144V4.09144C23.9428 3.95883 23.8902 3.83166 23.7964 3.73789C23.7026 3.64412 23.5754 3.59144 23.4428 3.59144C23.3102 3.59144 23.183 3.64412 23.0893 3.73789C22.9955 3.83166 22.9428 3.95883 22.9428 4.09144V8.06858C22.9425 8.13449 22.9551 8.19981 22.9801 8.2608C23.005 8.3218 23.0418 8.37725 23.0883 8.42399C23.1347 8.47072 23.19 8.5078 23.2508 8.53311C23.3117 8.55842 23.3769 8.57144 23.4428 8.57144ZM23.4428 11.2143C23.5754 11.2143 23.7026 11.1616 23.7964 11.0679C23.8902 10.9741 23.9428 10.8469 23.9428 10.7143V10.5886C23.9428 10.456 23.8902 10.3288 23.7964 10.235C23.7026 10.1413 23.5754 10.0886 23.4428 10.0886C23.3102 10.0886 23.183 10.1413 23.0893 10.235C22.9955 10.3288 22.9428 10.456 22.9428 10.5886V10.7143C22.9428 10.8469 22.9955 10.9741 23.0893 11.0679C23.183 11.1616 23.3102 11.2143 23.4428 11.2143ZM7.27712 5.42858C7.40949 5.42783 7.53624 5.37492 7.62984 5.28131C7.72345 5.1877 7.77637 5.06096 7.77712 4.92858V0.745728C7.77712 0.613119 7.72444 0.485942 7.63067 0.392174C7.5369 0.298406 7.40973 0.245728 7.27712 0.245728C7.14451 0.245728 7.01733 0.298406 6.92356 0.392174C6.8298 0.485942 6.77712 0.613119 6.77712 0.745728V4.9343C6.77862 5.06591 6.83196 5.19163 6.92557 5.28416C7.01917 5.3767 7.14549 5.42859 7.27712 5.42858ZM7.27712 10.5114C7.34375 10.5115 7.40972 10.4982 7.47114 10.4723C7.53256 10.4465 7.58819 10.4086 7.63477 10.361C7.68135 10.3133 7.71794 10.2569 7.74239 10.1949C7.76683 10.1329 7.77864 10.0666 7.77712 10V7.19144C7.77712 7.05883 7.72444 6.93166 7.63067 6.83789C7.5369 6.74412 7.40973 6.69144 7.27712 6.69144C7.14451 6.69144 7.01733 6.74412 6.92356 6.83789C6.8298 6.93166 6.77712 7.05883 6.77712 7.19144V10C6.77559 10.0666 6.7874 10.1329 6.81185 10.1949C6.83629 10.2569 6.87288 10.3133 6.91946 10.361C6.96604 10.4086 7.02168 10.4465 7.0831 10.4723C7.14452 10.4982 7.21048 10.5115 7.27712 10.5114ZM4.78855 10.3229C4.92115 10.3229 5.04833 10.2702 5.1421 10.1764C5.23587 10.0827 5.28855 9.95548 5.28855 9.82287V5.68287C5.28855 5.55026 5.23587 5.42309 5.1421 5.32932C5.04833 5.23555 4.92115 5.18287 4.78855 5.18287C4.65594 5.18287 4.52876 5.23555 4.43499 5.32932C4.34122 5.42309 4.28855 5.55026 4.28855 5.68287V9.82287C4.28855 9.95548 4.34122 10.0827 4.43499 10.1764C4.52876 10.2702 4.65594 10.3229 4.78855 10.3229ZM4.78855 12.1743C4.92115 12.1743 5.04833 12.1216 5.1421 12.0279C5.23587 11.9341 5.28855 11.8069 5.28855 11.6743V11.6057C5.28855 11.4731 5.23587 11.3459 5.1421 11.2522C5.04833 11.1584 4.92115 11.1057 4.78855 11.1057C4.65594 11.1057 4.52876 11.1584 4.43499 11.2522C4.34122 11.3459 4.28855 11.4731 4.28855 11.6057V11.6743C4.28855 11.8069 4.34122 11.9341 4.43499 12.0279C4.52876 12.1216 4.65594 12.1743 4.78855 12.1743ZM13.7143 12.9343C14.2368 13.076 14.7757 13.148 15.3171 13.1486C16.5065 13.1427 17.6684 12.7905 18.6609 12.1351C19.6534 11.4797 20.4335 10.5494 20.9059 9.45784C21.3783 8.36632 21.5226 7.16082 21.3212 5.98863C21.1197 4.81644 20.5812 3.7283 19.7714 2.85716C19.6808 2.76016 19.5555 2.70311 19.4229 2.69856C19.2902 2.69401 19.1613 2.74232 19.0643 2.83287C18.9673 2.92342 18.9102 3.0488 18.9057 3.18141C18.9011 3.31403 18.9494 3.44302 19.04 3.54001C19.883 4.44256 20.3713 5.61939 20.415 6.85361C20.4587 8.08784 20.0549 9.29626 19.2778 10.2562C18.5008 11.2161 17.403 11.8628 16.1867 12.0771C14.9705 12.2915 13.7178 12.0589 12.6594 11.4224C11.6011 10.7859 10.8085 9.78833 10.4277 8.61351C10.0469 7.43868 10.1036 6.16581 10.5873 5.02948C11.071 3.89316 11.9491 2.96996 13.0598 2.43004C14.1706 1.89012 15.439 1.76987 16.6314 2.09144C16.7595 2.12592 16.896 2.10811 17.0109 2.04194C17.1258 1.97577 17.2098 1.86665 17.2443 1.73858C17.2787 1.61052 17.2609 1.47401 17.1948 1.35908C17.1286 1.24414 17.0195 1.16021 16.8914 1.12573C16.1073 0.888717 15.2836 0.811596 14.4692 0.89894C13.6547 0.986284 12.8661 1.23631 12.1501 1.6342C11.4341 2.03208 10.8053 2.56971 10.301 3.2152C9.7967 3.86069 9.42718 4.60089 9.21436 5.39189C9.00154 6.18288 8.94975 7.00857 9.06206 7.81996C9.17438 8.63134 9.44851 9.41191 9.86819 10.1154C10.2879 10.8188 10.8446 11.4308 11.5052 11.915C12.1659 12.3993 12.9171 12.7459 13.7143 12.9343Z" fill="#697A8D"/>
<path id="Vector_3" d="M15.9742 3.79435V3.53149C15.9742 3.39889 15.9216 3.27171 15.8278 3.17794C15.734 3.08417 15.6069 3.03149 15.4742 3.03149C15.3416 3.03149 15.2145 3.08417 15.1207 3.17794C15.0269 3.27171 14.9742 3.39889 14.9742 3.53149V3.79435H14.7428C13.6 3.79435 12.6714 4.60578 12.6714 5.60578V5.67721C12.6894 6.03598 12.8255 6.37873 13.0586 6.65209C13.2917 6.92546 13.6086 7.11409 13.96 7.18864L14.9742 7.39721V9.16578H14.7428C14.1714 9.16578 13.6714 8.79149 13.6714 8.34864C13.6714 8.21603 13.6187 8.08885 13.5249 7.99508C13.4312 7.90132 13.304 7.84864 13.1714 7.84864C13.0388 7.84864 12.9116 7.90132 12.8178 7.99508C12.7241 8.08885 12.6714 8.21603 12.6714 8.34864C12.6714 9.35149 13.6 10.1658 14.7428 10.1658H14.9742V10.4886C14.9742 10.6212 15.0269 10.7484 15.1207 10.8422C15.2145 10.936 15.3416 10.9886 15.4742 10.9886C15.6069 10.9886 15.734 10.936 15.8278 10.8422C15.9216 10.7484 15.9742 10.6212 15.9742 10.4886V10.1658H16C17.1428 10.1658 18.0714 9.35149 18.0714 8.34864V8.28578C18.0606 7.91837 17.9243 7.56573 17.6852 7.28658C17.446 7.00742 17.1185 6.81858 16.7571 6.75149L15.9742 6.57149V4.79435H16C16.5714 4.79435 17.0742 5.16578 17.0742 5.60578C17.0742 5.73839 17.1269 5.86557 17.2207 5.95933C17.3145 6.0531 17.4416 6.10578 17.5742 6.10578C17.7069 6.10578 17.834 6.0531 17.9278 5.95933C18.0216 5.86557 18.0742 5.73839 18.0742 5.60578C18.0742 4.60578 17.1428 3.79435 16 3.79435H15.9742ZM16.5457 7.72292C16.6862 7.74084 16.8163 7.80655 16.9141 7.90905C17.0119 8.01154 17.0715 8.14456 17.0828 8.28578V8.35435C17.0828 8.79721 16.5914 9.17149 16.0114 9.17149H15.9742V7.60292L16.5457 7.72292ZM14.9714 6.37721L14.1657 6.21149C14.0384 6.18333 13.9227 6.11716 13.8339 6.02174C13.7451 5.92632 13.6875 5.80616 13.6685 5.67721V5.60578C13.6685 5.16578 14.16 4.79435 14.74 4.79435H14.9714V6.37721Z" fill="#697A8D"/>
</g>
</g>
<defs>
<clipPath id="clip0_1_1180">
<rect width="26" height="26" fill="white"/>
</clipPath>
</defs>
</svg>
