<svg width="25" height="25" viewBox="0 0 25 25" fill="none" xmlns="http://www.w3.org/2000/svg">
<g id="Icon">
<g id="bx-search-alt">
<g id="Combined Shape">
<path fill-rule="evenodd" clip-rule="evenodd" d="M10.6972 20.5926C13.0618 20.5926 15.2355 19.7793 16.9699 18.4304L22.6008 24.0614L24.412 22.2501L18.7811 16.6192C20.1312 14.8836 20.9446 12.7098 20.9446 10.3453C20.9446 4.69513 16.3473 0.0979004 10.6972 0.0979004C5.04706 0.0979004 0.449829 4.69513 0.449829 10.3453C0.449829 15.9954 5.04706 20.5926 10.6972 20.5926ZM10.6972 2.65974C14.9358 2.65974 18.3828 6.1067 18.3828 10.3453C18.3828 14.5838 14.9358 18.0308 10.6972 18.0308C6.45868 18.0308 3.01172 14.5838 3.01172 10.3453C3.01172 6.1067 6.45868 2.65974 10.6972 2.65974ZM13.2594 10.3453C13.2594 9.66382 12.9917 9.0208 12.5062 8.53405C11.5378 7.56823 9.85984 7.56567 8.88634 8.53661L7.07768 6.72283C9.01571 4.78607 12.3781 4.78607 14.3174 6.72283C15.2884 7.69504 15.8212 8.98109 15.8212 10.3453H13.2594Z" fill="#8592A3"/>
<path fill-rule="evenodd" clip-rule="evenodd" d="M10.6972 20.5926C13.0618 20.5926 15.2355 19.7793 16.9699 18.4304L22.6008 24.0614L24.412 22.2501L18.7811 16.6192C20.1312 14.8836 20.9446 12.7098 20.9446 10.3453C20.9446 4.69513 16.3473 0.0979004 10.6972 0.0979004C5.04706 0.0979004 0.449829 4.69513 0.449829 10.3453C0.449829 15.9954 5.04706 20.5926 10.6972 20.5926ZM10.6972 2.65974C14.9358 2.65974 18.3828 6.1067 18.3828 10.3453C18.3828 14.5838 14.9358 18.0308 10.6972 18.0308C6.45868 18.0308 3.01172 14.5838 3.01172 10.3453C3.01172 6.1067 6.45868 2.65974 10.6972 2.65974ZM13.2594 10.3453C13.2594 9.66382 12.9917 9.0208 12.5062 8.53405C11.5378 7.56823 9.85984 7.56567 8.88634 8.53661L7.07768 6.72283C9.01571 4.78607 12.3781 4.78607 14.3174 6.72283C15.2884 7.69504 15.8212 8.98109 15.8212 10.3453H13.2594Z" fill="black" fill-opacity="0.2"/>
</g>
</g>
</g>
</svg>
