<svg width="23" height="25" viewBox="0 0 23 25" fill="none" xmlns="http://www.w3.org/2000/svg">
<g id="Icon">
<g id="bx-task">
<g id="Combined Shape">
<path fill-rule="evenodd" clip-rule="evenodd" d="M3.17228 24.3938H20.2085C21.5507 24.3938 22.6423 23.3022 22.6423 21.96V3.7069C22.6423 2.36469 21.5507 1.27315 20.2085 1.27315H17.7748C17.7748 0.600218 17.2308 0.0562744 16.5579 0.0562744H6.8229C6.14997 0.0562744 5.60602 0.600218 5.60602 1.27315H3.17228C1.83006 1.27315 0.738525 2.36469 0.738525 3.7069V21.96C0.738525 23.3022 1.83006 24.3938 3.17228 24.3938ZM3.17233 3.70689H5.60608V6.14064H17.7748V3.70689H20.2086V21.96H3.17233V3.70689ZM8.29158 11.9732L10.4734 14.155L15.089 9.5394L16.8097 11.2601L10.4734 17.5963L6.57092 13.6938L8.29158 11.9732Z" fill="#435971"/>
<path fill-rule="evenodd" clip-rule="evenodd" d="M3.17228 24.3938H20.2085C21.5507 24.3938 22.6423 23.3022 22.6423 21.96V3.7069C22.6423 2.36469 21.5507 1.27315 20.2085 1.27315H17.7748C17.7748 0.600218 17.2308 0.0562744 16.5579 0.0562744H6.8229C6.14997 0.0562744 5.60602 0.600218 5.60602 1.27315H3.17228C1.83006 1.27315 0.738525 2.36469 0.738525 3.7069V21.96C0.738525 23.3022 1.83006 24.3938 3.17228 24.3938ZM3.17233 3.70689H5.60608V6.14064H17.7748V3.70689H20.2086V21.96H3.17233V3.70689ZM8.29158 11.9732L10.4734 14.155L15.089 9.5394L16.8097 11.2601L10.4734 17.5963L6.57092 13.6938L8.29158 11.9732Z" fill="white" fill-opacity="0.4"/>
</g>
</g>
</g>
</svg>
